<svg version="1.2" xmlns="http://www.w3.org/2000/svg" viewBox="0 0 50 50" width="50" height="50">
	<style>
		.s0 { opacity: .15;fill: #706fe5 } 
		.s1 { fill: #706fe5 } 
		.s2 { fill: #2e3e5c } 
		.s3 { fill: #eae9fb } 
	</style>
	<path fill-rule="evenodd" class="s0" d="m12 0h26c6.63 0 12 5.37 12 12v26c0 6.63-5.37 12-12 12h-26c-6.63 0-12-5.37-12-12v-26c0-6.63 5.37-12 12-12z"/>
	<path class="s1" d="m30.56 19.7c0-2.92-2.37-5.29-5.29-5.29-2.93 0-5.3 2.37-5.3 5.29 0 2.92 2.37 5.3 5.3 5.3 2.92 0 5.29-2.38 5.29-5.3z"/>
	<path class="s1" d="m32.53 30.91v-15.33c0-1.42-1.16-2.58-2.58-2.58h-9.37c-1.42 0-2.58 1.16-2.58 2.58v15.33zm-5.39-2.82h-3.75c-0.39 0-0.7-0.31-0.7-0.7 0-0.39 0.31-0.7 0.7-0.7h3.75c0.39 0 0.7 0.31 0.7 0.7 0 0.39-0.31 0.7-0.7 0.7zm-5.63-8.67h0.79q0.12-0.48 0.37-0.89l-0.55-0.56c-0.28-0.27-0.28-0.72 0-0.99 0.27-0.28 0.72-0.28 0.99 0l0.56 0.55q0.41-0.25 0.89-0.37v-0.79c0-0.38 0.32-0.7 0.7-0.7 0.39 0 0.71 0.32 0.71 0.7v0.79q0.48 0.12 0.89 0.37l0.56-0.55c0.27-0.28 0.72-0.28 0.99 0 0.28 0.27 0.28 0.72 0 0.99l-0.55 0.56q0.25 0.41 0.37 0.89h0.78c0.39 0 0.71 0.32 0.71 0.7 0 0.39-0.32 0.71-0.71 0.71h-0.78q-0.12 0.48-0.37 0.89l0.55 0.56c0.28 0.27 0.28 0.72 0 0.99q-0.21 0.21-0.49 0.21-0.28 0-0.5-0.21l-0.56-0.55q-0.41 0.25-0.89 0.37v0.78c0 0.39-0.32 0.71-0.71 0.71-0.38 0-0.7-0.32-0.7-0.71v-0.78q-0.48-0.12-0.89-0.37l-0.56 0.55q-0.22 0.21-0.5 0.21-0.28 0-0.49-0.21c-0.28-0.27-0.28-0.72 0-0.99l0.55-0.56q-0.25-0.41-0.37-0.89h-0.79c-0.38 0-0.7-0.32-0.7-0.71 0-0.38 0.32-0.7 0.7-0.7z"/>
	<path class="s2" d="m18 32.31v2.11c0 1.42 1.16 2.58 2.58 2.58h9.37c1.42 0 2.58-1.16 2.58-2.58v-2.11zm8.2 3.05h-1.87c-0.39 0-0.7-0.32-0.7-0.7 0-0.39 0.31-0.71 0.7-0.71h1.87c0.39 0 0.71 0.32 0.71 0.71 0 0.38-0.32 0.7-0.71 0.7z"/>
	<path fill-rule="evenodd" class="s1" d="m23.32 26.64h3.94c0.4 0 0.72 0.33 0.72 0.73 0 0.4-0.32 0.72-0.72 0.72h-3.94c-0.4 0-0.73-0.32-0.73-0.72 0-0.4 0.33-0.73 0.73-0.73z"/>
	<path fill-rule="evenodd" class="s3" d="m23.18 14.03h3.94c0.4 0 0.72 0.33 0.72 0.73 0 0.4-0.32 0.72-0.72 0.72h-3.94c-0.4 0-0.73-0.32-0.73-0.72 0-0.4 0.33-0.73 0.73-0.73z"/>
</svg>