<svg width="14" height="14" viewBox="0 0 14 14" fill="none" xmlns="http://www.w3.org/2000/svg">
<path d="M4.51172 10.6641C4.51172 10.7188 4.45703 10.7461 4.375 10.7461C4.29297 10.7734 4.23828 10.7188 4.23828 10.6641C4.23828 10.6094 4.29297 10.5547 4.375 10.5547C4.45703 10.5547 4.51172 10.6094 4.51172 10.6641ZM3.66406 10.5273C3.69141 10.4727 3.77344 10.4453 3.85547 10.4727C3.9375 10.5 3.96484 10.5547 3.96484 10.6094C3.9375 10.6641 3.85547 10.6914 3.80078 10.6641C3.71875 10.6641 3.66406 10.582 3.66406 10.5273ZM4.89453 10.5C4.94922 10.4727 5.03125 10.5273 5.03125 10.582C5.05859 10.6367 5.00391 10.6641 4.92188 10.6914C4.83984 10.7188 4.75781 10.6914 4.75781 10.6367C4.75781 10.5547 4.8125 10.5 4.89453 10.5ZM6.67188 0C10.4727 0 13.5625 2.89844 13.5625 6.67188C13.5625 9.70703 11.7031 12.3047 8.96875 13.207C8.61328 13.2891 8.47656 13.0703 8.47656 12.8789C8.47656 12.6602 8.50391 11.5117 8.50391 10.6094C8.50391 9.95312 8.28516 9.54297 8.03906 9.32422C9.57031 9.16016 11.1836 8.94141 11.1836 6.31641C11.1836 5.55078 10.9102 5.19531 10.4727 4.70312C10.5273 4.51172 10.7734 3.80078 10.3906 2.84375C9.81641 2.65234 8.50391 3.58203 8.50391 3.58203C7.95703 3.41797 7.38281 3.36328 6.78125 3.36328C6.20703 3.36328 5.63281 3.41797 5.08594 3.58203C5.08594 3.58203 3.74609 2.67969 3.19922 2.84375C2.81641 3.80078 3.03516 4.51172 3.11719 4.70312C2.67969 5.19531 2.46094 5.55078 2.46094 6.31641C2.46094 8.94141 4.01953 9.16016 5.55078 9.32422C5.33203 9.51562 5.16797 9.81641 5.11328 10.2539C4.70312 10.4453 3.71875 10.7461 3.11719 9.67969C2.73438 9.02344 2.05078 8.96875 2.05078 8.96875C1.39453 8.96875 2.02344 9.40625 2.02344 9.40625C2.46094 9.59766 2.76172 10.3906 2.76172 10.3906C3.17188 11.6211 5.08594 11.2109 5.08594 11.2109C5.08594 11.7852 5.08594 12.7148 5.08594 12.9062C5.08594 13.0703 4.97656 13.2891 4.62109 13.2344C1.88672 12.3047 0 9.70703 0 6.67188C0 2.89844 2.89844 0 6.67188 0ZM2.65234 9.43359C2.67969 9.40625 2.73438 9.43359 2.78906 9.46094C2.84375 9.51562 2.84375 9.59766 2.81641 9.625C2.76172 9.65234 2.70703 9.625 2.65234 9.59766C2.625 9.54297 2.59766 9.46094 2.65234 9.43359ZM2.35156 9.21484C2.37891 9.1875 2.40625 9.1875 2.46094 9.21484C2.51562 9.24219 2.54297 9.26953 2.54297 9.29688C2.51562 9.35156 2.46094 9.35156 2.40625 9.32422C2.35156 9.29688 2.32422 9.26953 2.35156 9.21484ZM3.22656 10.1992C3.28125 10.1445 3.36328 10.1719 3.41797 10.2266C3.47266 10.2812 3.47266 10.3633 3.44531 10.3906C3.41797 10.4453 3.33594 10.418 3.28125 10.3633C3.19922 10.3086 3.19922 10.2266 3.22656 10.1992ZM2.92578 9.78906C2.98047 9.76172 3.03516 9.78906 3.08984 9.84375C3.11719 9.89844 3.11719 9.98047 3.08984 10.0078C3.03516 10.0352 2.98047 10.0078 2.92578 9.95312C2.87109 9.89844 2.87109 9.81641 2.92578 9.78906Z" fill="white"/>
</svg>
