<svg version="1.2" xmlns="http://www.w3.org/2000/svg" viewBox="0 0 101 101" width="101" height="101">
	<style>
		.s0 { fill: #470137 } 
		.s1 { fill: #ff61f6 } 
	</style>
	<g style="opacity: .7">
		<path fill-rule="evenodd" class="s0" d="m60.92 78.13c-17.99 5.78-37.21-4.09-43-22.09-5.78-18 4.1-37.22 22.1-43 17.99-5.78 37.21 4.09 43 22.09 5.78 18-4.1 37.22-22.1 43z"/>
	</g>
	<path class="s0" d="m88.85 35.27c5.77 17.97-4.12 37.23-22.09 43-17.98 5.77-37.23-4.12-43-22.09-5.78-17.98 4.12-37.23 22.09-43 17.97-5.78 37.23 4.11 43 22.09z"/>
	<path class="s1" d="m53.68 34.23l-2.24 11.25 9.5 7.61q0.1 0.09 0.12 0.21c0.01 0.09-0.08 0.06-0.19 0.12l-4.26 1.54c-0.3 0.11-0.51 0.17-0.71 0.03q-1.02-0.95-2.04-1.9-1.01-0.93-2.12-1.89-1.1-0.95-2.21-1.93l-0.04 0.01q-0.16 1.42-0.38 2.86-0.21 1.44-0.4 2.84-0.21 1.42-0.44 2.81c0 0.21-0.15 0.29-0.35 0.36l-4.1 1.49c-0.07 0.02-0.11 0.08-0.15-0.01q-0.06-0.11-0.04-0.22l2.35-11.6-9.1-7.51q-0.14-0.09-0.11-0.17 0.04-0.1 0.16-0.14l4.23-1.54q0.15-0.04 0.27-0.05 0.13 0.01 0.25 0.1 0.98 1 2.06 1.97 1.09 0.96 2.2 1.88 1.09 0.92 2.11 1.91l0.03-0.01q0.15-1.45 0.34-2.85 0.2-1.39 0.42-2.8 0.21-1.42 0.4-2.8-0.02-0.13 0.04-0.23 0.09-0.1 0.23-0.12l3.93-1.43c0.09-0.05 0.2-0.03 0.25 0.06 0.03 0.01 0.02 0.1-0.01 0.15z"/>
	<path class="s1" d="m69.41 50.76c-1.37 0.52-2.85 0.74-4.31 0.62-1.37-0.12-2.66-0.66-3.73-1.52q-1.64-1.33-2.56-3.87c-0.52-1.38-0.66-2.86-0.4-4.31 0.27-1.46 0.93-2.84 1.91-3.96q1.56-1.79 4.33-2.78 0.13-0.06 0.39-0.13 0.26-0.07 0.59-0.17l-2.13-5.89q-0.08-0.19 0.11-0.27l3.78-1.37c0.09-0.05 0.19 0 0.24 0.06q0.01 0.04 0.01 0.04l6.43 17.73q0.19 0.5 0.44 1.11 0.27 0.58 0.47 1.05 0.08 0.2-0.08 0.37-1.24 1.14-2.71 1.99-1.33 0.77-2.78 1.3zm0.48-4.39l-2.97-8.19q-0.28 0.03-0.54 0.09-0.32 0.08-0.63 0.18c-0.72 0.27-1.4 0.68-1.93 1.25q-0.78 0.83-1.08 1.95-0.29 1.13 0.24 2.59 0.34 1 1.01 1.81 0.56 0.65 1.32 1.01 0.72 0.32 1.54 0.29 0.85-0.03 1.63-0.32 0.42-0.15 0.77-0.32 0.36-0.1 0.64-0.34z"/>
</svg>