<svg width="125" height="125" viewBox="0 0 125 125" fill="none" xmlns="http://www.w3.org/2000/svg">
<g opacity="0.8" filter="url(#filter0_d_3_562)">
<circle cx="62.0112" cy="56.0114" r="42" transform="rotate(-17.8082 62.0112 56.0114)" fill="#2B2C34"/>
</g>
<path d="M109.166 43.3339C116.26 65.4185 104.108 89.0724 82.0236 96.1664C59.9391 103.26 36.2851 91.1083 29.1911 69.0237C22.097 46.9392 34.2493 23.2853 56.3338 16.1912C78.4183 9.09719 102.072 21.2494 109.166 43.3339Z" fill="#2B2C34"/>
<circle cx="69.1787" cy="56.1788" r="42" transform="rotate(-17.8082 69.1787 56.1788)" fill="#706FE5" fill-opacity="0.15"/>
<g clip-path="url(#clip0_3_562)">
<path d="M69.0979 81.6637C71.1179 81.0148 72.7975 79.59 73.7671 77.7028C74.7366 75.8155 74.9168 73.6204 74.2679 71.6003L71.8213 63.9837L64.2046 66.4303C62.1845 67.0792 60.5049 68.504 59.5354 70.3912C58.5658 72.2785 58.3856 74.4736 59.0345 76.4936C59.6834 78.5137 61.1082 80.1933 62.9955 81.1628C64.8827 82.1324 67.0778 82.3126 69.0979 81.6637Z" fill="#0ACF83"/>
<path d="M54.1412 61.2605C53.4923 59.2404 53.6725 57.0453 54.6421 55.1581C55.6116 53.2708 57.2912 51.846 59.3113 51.1972L66.928 48.7505L71.8212 63.9839L64.2046 66.4305C62.1845 67.0794 59.9894 66.8993 58.1021 65.9297C56.2149 64.9601 54.7901 63.2806 54.1412 61.2605Z" fill="#A259FF"/>
<path d="M49.2479 46.0271C48.5994 44.008 48.779 41.8141 49.7473 39.9274C50.7157 38.0408 52.3935 36.6158 54.412 35.9657L62.0287 33.519L66.922 48.7524L59.3113 51.1971C57.2912 51.846 55.0961 51.6659 53.2088 50.6963C51.3216 49.7267 49.8968 48.0472 49.2479 46.0271Z" fill="#F24E1E"/>
<path d="M62.0347 33.5171L69.6514 31.0704C71.6714 30.4216 73.8665 30.6017 75.7538 31.5713C77.641 32.5408 79.0658 34.2204 79.7147 36.2405C80.3636 38.2606 80.1834 40.4557 79.2139 42.3429C78.2443 44.2301 76.5647 45.6549 74.5446 46.3038L66.928 48.7505L62.0347 33.5171Z" fill="#FF7262"/>
<path d="M84.608 51.4739C85.2569 53.494 85.0767 55.6891 84.1072 57.5763C83.1376 59.4635 81.458 60.8883 79.438 61.5372C77.4179 62.1861 75.2228 62.006 73.3355 61.0364C71.4483 60.0668 70.0235 58.3872 69.3746 56.3672C68.7257 54.3471 68.9059 52.152 69.8755 50.2648C70.845 48.3775 72.5246 46.9527 74.5447 46.3038C76.5647 45.6549 78.7598 45.8351 80.6471 46.8047C82.5343 47.7742 83.9591 49.4538 84.608 51.4739Z" fill="#1ABCFE"/>
</g>
<defs>
<filter id="filter0_d_3_562" x="0" y="0" width="124.022" height="124.023" filterUnits="userSpaceOnUse" color-interpolation-filters="sRGB">
<feFlood flood-opacity="0" result="BackgroundImageFix"/>
<feColorMatrix in="SourceAlpha" type="matrix" values="0 0 0 0 0 0 0 0 0 0 0 0 0 0 0 0 0 0 127 0" result="hardAlpha"/>
<feOffset dy="6"/>
<feGaussianBlur stdDeviation="10"/>
<feComposite in2="hardAlpha" operator="out"/>
<feColorMatrix type="matrix" values="0 0 0 0 0.168627 0 0 0 0 0.172549 0 0 0 0 0.203922 0 0 0 0.2 0"/>
<feBlend mode="normal" in2="BackgroundImageFix" result="effect1_dropShadow_3_562"/>
<feBlend mode="normal" in="SourceGraphic" in2="effect1_dropShadow_3_562" result="shape"/>
</filter>
<clipPath id="clip0_3_562">
<rect width="48" height="48" fill="white" transform="translate(39.1787 40.8589) rotate(-17.8082)"/>
</clipPath>
</defs>
</svg>
