<svg version="1.2" xmlns="http://www.w3.org/2000/svg" viewBox="0 0 70 70" width="70" height="70">
	<style>
		.s0 { fill: #333333 } 
		.s1 { fill: #fdb300 } 
		.s2 { fill: #ea6c00 } 
		.s3 { fill: #fdad00 } 
		.s4 { fill: #fdd231 } 
		.s5 { fill: #feeeb7 } 
	</style>
	<g style="opacity: .8">
		<path fill-rule="evenodd" class="s0" d="m41.8 53.6c-12.35 3.97-25.54-2.81-29.5-15.15-3.97-12.35 2.81-25.54 15.15-29.5 12.35-3.97 25.54 2.81 29.5 15.15 3.97 12.35-2.81 25.54-15.15 29.5z"/>
	</g>
	<path class="s0" d="m60.96 24.2c3.96 12.33-2.83 25.54-15.16 29.5-12.33 3.96-25.54-2.83-29.5-15.16-3.96-12.33 2.82-25.54 15.16-29.5 12.33-3.96 25.53 2.83 29.5 15.16z"/>
	<path class="s1" d="m27.53 22.91l6.6-2.94 7.07-1.52 7.58 5.29-7.6 17.88-16.67-9.98z"/>
	<path class="s2" d="m29.43 30.04l11.75 11.58-16.67-9.98z"/>
	<path class="s2" d="m43.86 25.34l-2.68 16.28 7.6-17.88z"/>
	<path class="s3" d="m29.43 30.04l14.43-4.7-2.68 16.28z"/>
	<path class="s4" d="m34.13 19.97l-6.6 2.94 1.9 7.13z"/>
	<path class="s4" d="m34.13 19.97l7.07-1.52 2.66 6.89z"/>
	<path class="s3" d="m48.78 23.74l-7.58-5.29 2.66 6.89z"/>
	<path class="s3" d="m24.51 31.64l3.02-8.73 1.9 7.13z"/>
	<path class="s5" d="m34.13 19.97l-4.7 10.07 14.43-4.7z"/>
</svg>